<?xml version="1.0" encoding="UTF-8" standalone="no"?>
<svg
   xmlns:dc="http://purl.org/dc/elements/1.1/"
   xmlns:cc="http://creativecommons.org/ns#"
   xmlns:rdf="http://www.w3.org/1999/02/22-rdf-syntax-ns#"
   xmlns:svg="http://www.w3.org/2000/svg"
   xmlns="http://www.w3.org/2000/svg"
   xmlns:sodipodi="http://sodipodi.sourceforge.net/DTD/sodipodi-0.dtd"
   xmlns:inkscape="http://www.inkscape.org/namespaces/inkscape"
   inkscape:version="1.0 (4035a4fb49, 2020-05-01)"
   sodipodi:docname="Air_France_Logo.svg"
   xml:space="preserve"
   enable-background="new 0 0 400 34.998"
   viewBox="0 0 400 34.998"
   height="34.998px"
   width="400px"
   y="0px"
   x="0px"
   id="Layer_1"
   version="1.0"><metadata
   id="metadata146"><rdf:RDF><cc:Work
       rdf:about=""><dc:format>image/svg+xml</dc:format><dc:type
         rdf:resource="http://purl.org/dc/dcmitype/StillImage" /><dc:title></dc:title></cc:Work></rdf:RDF></metadata><defs
   id="defs144" /><sodipodi:namedview
   inkscape:current-layer="g137"
   inkscape:window-maximized="0"
   inkscape:window-y="36"
   inkscape:window-x="1280"
   inkscape:cy="54.056691"
   inkscape:cx="200.65247"
   inkscape:zoom="1.6975"
   showgrid="false"
   id="namedview142"
   inkscape:window-height="1375"
   inkscape:window-width="1280"
   inkscape:pageshadow="2"
   inkscape:pageopacity="0"
   guidetolerance="10"
   gridtolerance="10"
   objecttolerance="10"
   borderopacity="1"
   bordercolor="#666666"
   pagecolor="#ffffff" />
<g
   id="g139">
	<g
   id="g137">
		<g
   id="g116">
			<path
   id="path114"
   d="m 378.438,0.296 -17.952,25.975 c -2.364,3.416 -6.2,6.707 -10.83,7.061 v 0.797 h 19.967 c 5.3,0 9.166,-3.451 11.785,-7.252 l 18.434,-26.58 h -21.404 z"
   fill="#ed1c24" />
		</g>
		<linearGradient
   y2="34.128399"
   x2="374.74899"
   y1="0.29589999"
   x1="374.74899"
   gradientUnits="userSpaceOnUse"
   id="SVGID_1_">
			<stop
   id="stop118"
   style="stop-color:#FF1E27"
   offset="0.3352" />
			<stop
   id="stop120"
   style="stop-color:#E81B23"
   offset="0.6915" />
			<stop
   id="stop122"
   style="stop-color:#A61319"
   offset="0.7841" />
			<stop
   id="stop124"
   style="stop-color:#9D1218"
   offset="0.8719" />
			<stop
   id="stop126"
   style="stop-color:#931116"
   offset="0.9551" />
			<stop
   id="stop128"
   style="stop-color:#800F14"
   offset="1" />
		</linearGradient>
		<path
   style="fill:url(#SVGID_1_)"
   id="path131"
   d="m 378.438,0.296 -17.952,25.971 c -2.364,3.42 -6.2,6.711 -10.83,7.064 v 0.797 h 19.967 c 5.3,0 9.166,-3.451 11.785,-7.252 l 18.434,-26.58 z"
   fill="url(#SVGID_1_)" />
		<g
   id="g135">
			<path
   id="path133"
   d="M 47.806,34.128 V 3.15 h 9.043 v 30.978 z m 208.462,0 -21.719,-18.395 v 18.395 h -7.634 V 3.15 h 6.485 l 21.431,18.107 V 3.15 h 7.634 v 30.978 z m 47.235,-20.983 c -4.087,-2.011 -8.686,-3.64 -14.786,-3.64 -7.283,0 -12.714,3.767 -12.714,9.005 0,5.37 5.526,9.167 12.648,9.167 5.877,0 10.542,-1.502 15.141,-4.152 v 7.666 c -4.06,2.014 -9.456,3.512 -15.522,3.512 -12.394,0 -22.135,-6.324 -22.135,-16.192 0,-9.71 9.934,-15.938 22.104,-15.938 5.746,0 10.954,1.086 15.264,2.843 z M 107.15,34.128 V 3.15 h 30.212 v 6.64 h -21.177 v 7.7 h 20.699 v 6.644 h -20.699 v 9.994 z m 201.815,0 V 3.15 h 31.363 v 6.64 h -22.324 v 5.369 h 21.97 V 21.8 h -21.97 v 5.684 h 22.228 v 6.645 H 308.965 Z M 168.756,22.505 181.247,34.128 h -9.648 c -2.138,0 -3.544,-0.67 -4.664,-1.756 l -8.493,-8.238 c -0.162,-0.162 -0.416,-0.254 -0.735,-0.254 h -5.781 v 10.248 h -9.04 V 3.15 h 19.582 c 10.152,0 14.436,4.564 14.436,9.614 -0.002,5.873 -5.24,8.684 -8.148,9.741 z m -7.218,-5.112 c 3.578,0 5.304,-1.822 5.304,-3.863 0,-2.045 -1.533,-3.74 -5.304,-3.74 h -9.613 v 7.603 z m -70.356,5.112 12.486,11.623 h -9.644 c -2.142,0 -3.547,-0.67 -4.664,-1.756 L 80.863,24.134 C 80.706,23.972 80.447,23.88 80.128,23.88 H 74.351 V 34.128 H 65.308 V 3.15 h 19.581 c 10.156,0 14.436,4.564 14.436,9.614 -0.001,5.873 -5.239,8.684 -8.143,9.741 z m -7.218,-5.112 c 3.574,0 5.3,-1.822 5.3,-3.863 0,-2.045 -1.533,-3.74 -5.3,-3.74 h -9.613 v 7.603 z M 33.663,34.128 29.699,27.327 H 12.391 L 8.782,34.128 H 0.158 L 17.401,3.181 h 7.857 L 44.805,34.128 Z M 15.838,20.876 h 10.091 l -5.238,-9.457 z m 198.305,13.252 -3.867,-6.801 h -16.861 l -3.482,6.801 h -8.4 L 198.334,3.181 h 7.63 l 19.004,30.947 z M 196.799,20.876 h 9.837 l -5.11,-9.457 z"
   fill="#002157" />
		</g>
	<path
   id="path148"
   d=""
   style="fill:#a0a0a0;stroke:none;stroke-width:0.589102" /><path
   id="path150"
   d="M 9.1161706,18.722932 17.44187,3.7131796 l 3.869125,-0.012338 3.869126,-0.012339 9.491471,15.0220914 9.491472,15.022091 h -5.204215 -5.204215 l -1.828577,-3.240059 -1.828576,-3.240058 h -9.053818 -9.053819 l -1.69225,3.238659 -1.6922487,3.238659 -3.9074366,0.0014 -3.90743666,0.0014 z m 16.8676724,2.04967 c 0,-0.767417 -4.842091,-9.426552 -5.269376,-9.423252 -0.260552,0.002 -4.419447,7.579743 -5.236269,9.540764 -0.108003,0.259291 2.211585,0.471437 5.154639,0.471437 3.173683,0 5.351006,-0.239643 5.351006,-0.588949 z"
   style="fill:#a0a0a0;stroke:none;stroke-width:0.589102" /><path
   id="path152"
   d="M 3.7380397,29.143121 C 17.010146,4.8836101 17.367387,4.3032123 19.24875,3.9433775 c 0.993785,-0.190074 2.686692,-0.2589044 3.762016,-0.1529565 1.862261,0.183482 2.397287,0.8922286 11.263095,14.920173 l 9.30796,14.727541 -4.17832,0.174943 c -2.298077,0.09622 -4.523722,0.0424 -4.945879,-0.119596 -0.422157,-0.161997 -1.44554,-1.632474 -2.274186,-3.267727 L 30.676808,27.252568 H 21.089276 11.501743 L 9.9126696,30.492626 8.3235962,33.732685 H 4.7753684 1.2271407 Z M 25.972311,20.330623 c -0.0145,-1.296249 -4.181245,-8.515903 -5.089612,-8.818692 -0.658104,-0.219368 -5.502685,7.86781 -5.502685,9.185766 0,0.44323 1.762031,0.663854 5.301914,0.663854 4.661101,0 5.300521,-0.124602 5.290383,-1.030928 z"
   style="fill:#ffffff;stroke:none;stroke-width:0.589102" /><path
   id="path154"
   d="M 48.369705,18.710594 V 3.6885027 h 4.123711 4.123711 V 18.710594 33.732685 h -4.123711 -4.123711 z"
   style="fill:#ffffff;stroke-width:0.589102" /><path
   id="path156"
   d="M 65.453652,18.670099 V 3.6075129 l 13.107511,0.1877703 c 12.457752,0.1784623 13.224321,0.2554528 15.463917,1.553121 3.484476,2.0189772 4.712813,3.9781993 4.712813,7.5170308 0,3.6576 -2.012365,6.654371 -5.570214,8.295043 -1.293744,0.596599 -2.342209,1.217274 -2.329923,1.379277 0.01229,0.162003 2.619285,2.680412 5.793331,5.596465 l 5.770993,5.301915 -4.481074,0.174671 c -2.464591,0.09607 -5.128997,0.01205 -5.920903,-0.186703 -0.791906,-0.198756 -3.594398,-2.464398 -6.227762,-5.03476 l -4.787932,-4.673385 h -3.347117 -3.347116 v 5.007364 5.007363 h -4.418262 -4.418262 z m 21.132186,-1.494223 c 3.289449,-1.146708 4.029921,-4.360804 1.46878,-6.375397 C 86.711054,9.7436309 85.681681,9.5795189 80.396297,9.5795189 h -6.106121 v 4.1237111 4.123712 h 5.214007 c 2.867704,0 6.054448,-0.29298 7.081655,-0.651066 z"
   style="fill:#ffffff;stroke-width:0.589102" /><path
   id="path158"
   d=""
   style="fill:#ffffff;stroke-width:0.589102" /><path
   id="path160"
   d=""
   style="fill:#ffffff;stroke-width:0.589102" /><path
   id="path162"
   d=""
   style="fill:#ffffff;stroke-width:0.589102" /><path
   id="path164"
   d="M 107.27987,18.710594 V 3.6885027 h 15.02209 15.02209 v 2.9455081 2.9455081 h -10.60383 -10.60383 v 4.1237111 4.123712 h 10.30928 10.30928 v 2.945508 2.945508 h -10.30928 -10.30928 v 5.007364 5.007363 h -4.41826 -4.41826 z"
   style="fill:#ffffff;stroke-width:0.589102" /><path
   id="path166"
   d="M 143.21507,18.710594 V 3.6885027 h 12.00251 c 13.12991,0 15.73623,0.4669186 18.75608,3.3601128 2.01202,1.927641 3.03737,4.9138415 2.51066,7.3119645 -0.497,2.262821 -3.81554,6.025481 -6.17694,7.003606 -0.96852,0.401174 -1.76094,0.884021 -1.76094,1.072994 0,0.188973 2.58468,2.794529 5.74374,5.790126 l 5.74374,5.446538 -5.52505,0.02942 -5.52505,0.02942 -5.11711,-5.007363 -5.11711,-5.007364 h -3.64356 -3.64355 v 5.007364 5.007363 h -4.12371 -4.12371 z m 21.03855,-1.502077 c 3.24222,-1.130245 3.74981,-5.438839 0.82513,-7.004078 -0.64222,-0.3437059 -3.9686,-0.6249201 -7.39197,-0.6249201 h -6.22429 v 4.1237111 4.123712 h 5.50856 c 3.0297,0 6.30686,-0.278291 7.28257,-0.618425 z"
   style="fill:#ffffff;stroke-width:0.589102" /><path
   id="path168"
   d="m 184.63111,29.15892 c 1.35962,-2.515571 4.99044,-9.268137 8.06849,-15.005703 l 5.59647,-10.4319388 3.82916,0.00161 3.82916,0.00161 8.83652,14.4326458 c 4.86009,7.937956 8.92489,14.689797 9.03289,15.004091 0.11659,0.339288 -1.79804,0.570606 -4.71281,0.569383 l -4.90918,-0.0021 -1.74664,-3.238 -1.74664,-3.237998 h -8.88175 -8.88174 l -1.58907,3.240058 -1.58907,3.240059 h -3.80391 -3.8039 z m 22.20693,-8.169287 c 0,-0.656005 -4.92657,-9.642809 -5.2862,-9.642809 -0.4154,0 -4.72853,8.606463 -4.72853,9.435372 0,0.3343 2.11802,0.579355 5.00737,0.579355 2.75405,0 5.00736,-0.167363 5.00736,-0.371918 z"
   style="fill:#ffffff;stroke-width:0.589102" /><path
   id="path170"
   d="M 227.4566,18.710594 V 3.6885027 l 3.09278,0.02381 3.09278,0.02381 10.30928,8.7950643 c 5.67011,4.837286 10.5081,8.803008 10.75111,8.812715 0.243,0.0097 0.44182,-3.958787 0.44182,-8.818875 V 3.6885027 h 3.53461 3.53461 V 18.710594 33.732685 h -2.95132 -2.95132 l -10.74529,-9.117854 -10.74529,-9.117855 -0.16224,9.117855 -0.16223,9.117854 h -3.51965 -3.51965 z"
   style="fill:#ffffff;stroke-width:0.589102" /><path
   id="path172"
   d=""
   style="fill:#ffffff;stroke-width:0.589102" /><path
   id="path174"
   d="M 280.4781,33.410732 C 263.36898,28.621653 261.54053,11.115805 277.48349,4.7398709 281.99676,2.934919 294.18635,2.8136426 299.76882,4.5181504 l 3.68189,1.1241985 v 3.5043665 c 0,3.1090156 -0.11631,3.4557216 -1.03093,3.0731886 -4.50923,-1.885949 -8.59912,-2.7485447 -13.22215,-2.7886726 -4.34644,-0.037726 -5.55065,0.1761238 -7.95287,1.4123166 -3.99635,2.056536 -5.66283,4.695417 -5.31581,8.417607 0.2298,2.464826 0.62965,3.241489 2.62889,5.106359 1.29682,1.209666 3.38553,2.484735 4.64157,2.833488 4.91527,1.364782 13.0813,0.480573 17.71836,-1.918523 1.03693,-0.536481 2.03104,-0.97542 2.20913,-0.97542 0.17809,0 0.32381,1.553278 0.32381,3.451728 v 3.451727 l -3.97644,1.336316 c -5.1968,1.746429 -14.35533,2.162938 -18.99617,0.863902 z"
   style="fill:#ffffff;stroke-width:0.589102" /><path
   id="path176"
   d="M 309.34172,18.710594 V 3.6885027 h 15.31664 15.31665 v 2.9455081 2.9455081 h -11.19293 -11.19294 v 2.9455081 2.945508 h 11.19294 11.19293 v 2.945508 2.945508 h -11.19293 -11.19294 v 3.240059 3.240059 h 11.19294 11.19293 v 2.945508 2.945508 h -15.31665 -15.31664 z"
   style="fill:#ffffff;stroke-width:0.589102" /></g>
</g>
</svg>
