<?xml version="1.0" encoding="UTF-8" standalone="no"?>
<svg
   xmlns:dc="http://purl.org/dc/elements/1.1/"
   xmlns:cc="http://creativecommons.org/ns#"
   xmlns:rdf="http://www.w3.org/1999/02/22-rdf-syntax-ns#"
   xmlns:svg="http://www.w3.org/2000/svg"
   xmlns="http://www.w3.org/2000/svg"
   xmlns:sodipodi="http://sodipodi.sourceforge.net/DTD/sodipodi-0.dtd"
   xmlns:inkscape="http://www.inkscape.org/namespaces/inkscape"
   inkscape:version="1.0 (4035a4fb49, 2020-05-01)"
   sodipodi:docname="double-arrow.svg"
   xml:space="preserve"
   style="enable-background:new 0 0 384.962 384.962;"
   viewBox="0 0 384.962 384.962"
   y="0px"
   x="0px"
   id="Capa_1"
   version="1.1"><metadata
   id="metadata171"><rdf:RDF><cc:Work
       rdf:about=""><dc:format>image/svg+xml</dc:format><dc:type
         rdf:resource="http://purl.org/dc/dcmitype/StillImage" /><dc:title></dc:title></cc:Work></rdf:RDF></metadata><defs
   id="defs169" /><sodipodi:namedview
   inkscape:current-layer="g134"
   inkscape:window-maximized="1"
   inkscape:window-y="36"
   inkscape:window-x="0"
   inkscape:cy="191.94259"
   inkscape:cx="96.375102"
   inkscape:zoom="1.8573262"
   showgrid="false"
   id="namedview167"
   inkscape:window-height="1375"
   inkscape:window-width="2560"
   inkscape:pageshadow="2"
   inkscape:pageopacity="0"
   guidetolerance="10"
   gridtolerance="10"
   objecttolerance="10"
   borderopacity="1"
   bordercolor="#666666"
   pagecolor="#ffffff" />
<g
   id="g134">
	<g
   id="Double_Arrow_Left_x2F_Right">
		<path
   id="path117"
   d="M40.942,156.619h187.589c6.641,0,12.03-5.438,12.03-12.151c0-6.713-5.39-12.151-12.03-12.151H40.942l62.558-63.46    c4.704-4.752,4.704-12.439,0-17.179c-4.704-4.752-12.319-4.752-17.011,0l-82.997,84.2c-4.632,4.68-4.68,12.512,0,17.191    l83.009,84.2c4.704,4.752,12.319,4.74,17.011,0c4.704-4.74,4.704-12.439,0-17.179L40.942,156.619z" />
		<path
   style="fill:#ff1e27;fill-opacity:1"
   id="path119"
   d="M381.472,231.904l-83.009-84.2c-4.704-4.752-12.319-4.74-17.011,0c-4.704,4.74-4.704,12.439,0,17.179l62.558,63.46    H156.421c-6.641,0-12.03,5.438-12.03,12.151c0,6.713,5.39,12.151,12.03,12.151H344.01l-62.558,63.46    c-4.704,4.752-4.704,12.439,0,17.179c4.704,4.752,12.319,4.752,17.011,0l82.997-84.2    C386.104,244.416,386.152,236.584,381.472,231.904z" />
	</g>
	<g
   id="g122">
	</g>
	<g
   id="g124">
	</g>
	<g
   id="g126">
	</g>
	<g
   id="g128">
	</g>
	<g
   id="g130">
	</g>
	<g
   id="g132">
	</g>
<path
   id="path173"
   d="m 91.44985,239.95047 c -1.080198,-0.40283 -2.544927,-1.19348 -3.254948,-1.757 C 87.484881,237.62996 67.963006,217.97145 44.812957,194.5079 19.248896,168.59766 2.2932754,151.00662 1.6301835,149.70685 0.09458026,146.69682 0.147929,141.93966 1.7498273,139.03808 3.0937016,136.60386 86.837025,51.388109 89.33594,49.911964 c 2.224553,-1.314076 6.059151,-1.718794 8.85867,-0.934977 7.17522,2.008938 10.64902,10.441612 6.92524,16.811048 -0.86848,1.485507 -14.387833,15.593529 -32.838523,34.268405 -17.249259,17.45885 -31.362289,31.88931 -31.362289,32.06769 0,0.17838 42.355683,0.32433 94.123752,0.32433 81.23488,0 94.48861,0.10836 96.78829,0.79129 3.05803,0.90814 6.17988,3.77848 7.46516,6.86374 1.75943,4.22343 0.57781,9.80645 -2.73246,12.91053 -3.57012,3.34775 3.62069,3.12441 -100.59837,3.12441 -52.275506,0 -95.046372,0.19726 -95.046372,0.43835 0,0.2411 14.297591,14.95984 31.772427,32.70831 20.437384,20.75742 32.154335,33.05091 32.842915,34.45898 2.66077,5.44098 0.072,12.75373 -5.542778,15.65725 -2.20671,1.14113 -6.256187,1.40147 -8.541752,0.54915 z"
   style="fill:#ff1e27;stroke-width:0.538408;fill-opacity:1;opacity:1" /><path
   id="path998"
   d="M 90.419051,239.06851 C 88.420904,238.01208 35.964396,185.45278 14.207466,162.70758 2.7430718,150.72244 1.6481639,149.41247 1.1569349,147.09374 c -0.60963152,-2.87763 -0.1216987,-6.36668 1.142835,-8.17206 2.9177746,-4.1657 84.7886221,-87.160905 87.6144311,-88.817661 3.478609,-2.039488 9.679953,-1.196926 12.832249,1.743486 3.30049,3.07864 4.46944,8.97698 2.52449,12.738097 -1.22781,2.374334 -10.222616,11.858345 -40.068284,42.247508 -13.355989,13.59922 -24.283618,24.88591 -24.283618,25.08156 0,0.19565 42.33909,0.52047 94.086862,0.72183 52.92636,0.20594 94.99821,0.57972 96.17005,0.85441 4.71192,1.10451 8.40006,5.85029 8.3951,10.80254 -0.006,5.89486 -3.16886,9.97096 -8.39323,10.81638 -1.85087,0.29951 -41.94971,0.64934 -96.71032,0.84371 -53.657343,0.19045 -93.548462,0.53524 -93.548462,0.80856 0,0.2621 9.873064,10.55611 21.940142,22.87561 28.516849,29.11336 40.92229,42.07394 42.18332,44.07098 1.34197,2.12523 1.34249,6.80023 10e-4,9.69135 -1.16816,2.51769 -3.99078,5.3461 -6.146062,6.15867 -2.314397,0.87256 -6.34124,0.63974 -8.478441,-0.4902 z"
   style="opacity:1;fill:#ff1e27;fill-opacity:1;stroke-width:0.538408" /><path
   id="path1000"
   d="M 90.420628,239.06932 C 88.41342,238.00807 34.29815,183.78549 13.666114,162.1626 2.7399507,150.7117 1.6434565,149.39041 1.1555242,147.08716 0.54605121,144.21019 1.0366565,140.72503 2.3062861,138.91238 5.5906814,134.22325 86.557893,52.183804 89.914201,50.144292 c 3.437523,-2.088865 9.651062,-1.264148 12.832249,1.703213 3.29825,3.076553 4.46938,8.977109 2.5272,12.732872 -1.24367,2.404978 -9.533089,11.160694 -39.503808,41.725963 -13.631316,13.90174 -24.663755,25.47079 -24.516529,25.709 0.147226,0.23822 27.086315,0.46226 59.864637,0.49787 32.77833,0.0356 75.58768,0.21733 95.13191,0.40381 38.99685,0.37209 36.96423,0.18716 40.18456,3.65604 2.2192,2.39048 3.15834,4.72774 3.14549,7.82825 -0.024,5.7908 -3.2266,9.87197 -8.40209,10.70702 -1.84394,0.29751 -41.42533,0.64186 -94.9605,0.82613 -50.489244,0.17379 -92.622745,0.47837 -93.629999,0.67686 l -1.831371,0.36088 22.560096,23.08389 c 29.3114,29.99195 40.466664,41.66255 41.725034,43.6526 1.38562,2.19131 1.38348,7.15506 -0.004,9.8474 -1.26576,2.45566 -4.11159,5.23814 -6.139327,6.00262 -2.313627,0.87227 -6.341234,0.63975 -8.476863,-0.48939 z"
   style="opacity:1;fill:#ff1e27;fill-opacity:1;stroke-width:0.538408" /><path
   id="path1002"
   d="m 286.16406,335.96598 c -6.36033,-1.99283 -9.81725,-10.68562 -6.5955,-16.58508 0.68658,-1.25721 14.91562,-16.08252 32.84291,-34.21918 17.39732,-17.6005 31.63149,-32.14655 31.63149,-32.32455 0,-0.178 -42.35568,-0.32363 -94.12375,-0.32363 -103.76544,0 -97.62998,0.20301 -101.28365,-3.35142 -6.21874,-6.04982 -4.487,-16.24417 3.31292,-19.50238 1.78405,-0.74524 12.33775,-0.83617 97.04811,-0.83617 52.27551,0 95.04637,-0.19171 95.04637,-0.42602 0,-0.23432 -14.31731,-14.95306 -31.81625,-32.70831 -20.93928,-21.246 -32.16319,-33.01855 -32.83108,-34.43593 -2.62117,-5.56249 -0.0462,-12.71381 5.68043,-15.77587 2.61866,-1.40021 7.63243,-1.19033 10.30599,0.43142 3.15087,1.91129 86.58088,86.66304 87.94641,89.3397 1.53884,3.01639 1.48709,7.76963 -0.11629,10.67992 -1.36849,2.48393 -84.75743,87.3442 -87.50491,89.04885 -2.00921,1.24661 -7.05243,1.76907 -9.5432,0.98865 z"
   style="opacity:1;fill:#ff1e27;fill-opacity:1;stroke-width:0.538408" /><path
   id="path1004"
   d="m 284.95353,335.40696 c -2.55717,-1.30466 -4.77993,-3.68538 -5.87037,-6.28754 -0.97072,-2.31645 -0.91932,-6.72316 0.10706,-9.17963 0.53352,-1.27688 5.71242,-6.93393 14.40242,-15.73215 7.46314,-7.55606 21.92814,-22.21778 32.14444,-32.5816 l 18.57509,-18.8433 -95.29829,-0.2692 c -86.28825,-0.24376 -95.47645,-0.35154 -97.18271,-1.14004 -9.32519,-4.30932 -9.25231,-17.79985 0.11731,-21.71376 1.78406,-0.74525 12.34206,-0.83617 97.09297,-0.83617 64.70315,0 95.03246,-0.17637 94.90729,-0.55189 -0.10118,-0.30354 -10.73602,-11.26688 -23.63297,-24.36298 -36.51389,-37.07772 -40.27766,-41.0205 -41.14913,-43.10623 -1.24168,-2.97177 -1.02657,-6.70906 0.57067,-9.91429 3.06261,-6.14586 10.9513,-8.34722 16.4158,-4.58086 0.75599,0.52106 12.01774,11.729 25.02611,24.90655 13.00838,13.17754 32.0428,32.44543 42.29872,42.81752 11.39756,11.52666 19.09394,19.73416 19.7964,21.11108 1.37922,2.70351 1.53294,7.33441 0.33837,10.19342 -0.50603,1.21111 -6.12306,7.33023 -14.94083,16.27637 -7.77147,7.8846 -26.97099,27.37143 -42.6656,43.30407 -15.6946,15.93264 -29.3382,29.46602 -30.31911,30.07417 -2.73166,1.69361 -7.84178,1.89188 -10.73364,0.41646 z"
   style="opacity:1;fill:#ff1e27;fill-opacity:1;stroke-width:0.538408;stroke:#000000;stroke-opacity:1" /></g>
<g
   id="g136">
</g>
<g
   id="g138">
</g>
<g
   id="g140">
</g>
<g
   id="g142">
</g>
<g
   id="g144">
</g>
<g
   id="g146">
</g>
<g
   id="g148">
</g>
<g
   id="g150">
</g>
<g
   id="g152">
</g>
<g
   id="g154">
</g>
<g
   id="g156">
</g>
<g
   id="g158">
</g>
<g
   id="g160">
</g>
<g
   id="g162">
</g>
<g
   id="g164">
</g>
</svg>
